<svg id="Component_15_1" data-name="Component 15 – 1" xmlns="http://www.w3.org/2000/svg" width="117.103" height="106.544" viewBox="0 0 117.103 106.544">
  <g id="Group_110" data-name="Group 110">
    <g id="Group_97" data-name="Group 97" transform="translate(0 36.296)">
      <g id="Group_96" data-name="Group 96">
        <path id="Path_42" data-name="Path 42" d="M-1974.863,1697.478a10.235,10.235,0,0,1-10.224-10.223,10.235,10.235,0,0,1,10.224-10.224,10.235,10.235,0,0,1,10.223,10.224A10.235,10.235,0,0,1-1974.863,1697.478Zm0-16a5.785,5.785,0,0,0-5.779,5.779,5.785,5.785,0,0,0,5.779,5.778,5.785,5.785,0,0,0,5.779-5.778A5.785,5.785,0,0,0-1974.863,1681.476Z" transform="translate(1985.086 -1677.031)" fill="#ab0202"/>
      </g>
    </g>
    <g id="Group_99" data-name="Group 99" transform="translate(32.218 14.74)">
      <g id="Group_98" data-name="Group 98">
        <path id="Path_43" data-name="Path 43" d="M-1858.881,1619.88a10.234,10.234,0,0,1-10.223-10.223,10.236,10.236,0,0,1,10.223-10.224,10.236,10.236,0,0,1,10.224,10.224A10.234,10.234,0,0,1-1858.881,1619.88Zm0-16a5.786,5.786,0,0,0-5.779,5.779,5.785,5.785,0,0,0,5.779,5.778,5.785,5.785,0,0,0,5.779-5.778A5.785,5.785,0,0,0-1858.881,1603.878Z" transform="translate(1869.104 -1599.433)" fill="#ab0202"/>
      </g>
    </g>
    <g id="Group_101" data-name="Group 101" transform="translate(63.415 22.999)">
      <g id="Group_100" data-name="Group 100">
        <path id="Path_44" data-name="Path 44" d="M-1746.578,1649.61a10.235,10.235,0,0,1-10.223-10.224,10.234,10.234,0,0,1,10.223-10.223,10.234,10.234,0,0,1,10.223,10.223A10.236,10.236,0,0,1-1746.578,1649.61Zm0-16a5.785,5.785,0,0,0-5.778,5.778,5.785,5.785,0,0,0,5.778,5.779,5.786,5.786,0,0,0,5.779-5.779A5.785,5.785,0,0,0-1746.578,1633.609Z" transform="translate(1756.801 -1629.164)" fill="#ab0202"/>
      </g>
    </g>
    <g id="Group_103" data-name="Group 103" transform="translate(96.656)">
      <g id="Group_102" data-name="Group 102">
        <path id="Path_45" data-name="Path 45" d="M-1626.912,1566.817a10.235,10.235,0,0,1-10.223-10.223,10.236,10.236,0,0,1,10.223-10.224,10.235,10.235,0,0,1,10.223,10.224A10.235,10.235,0,0,1-1626.912,1566.817Zm0-16a5.785,5.785,0,0,0-5.779,5.779,5.785,5.785,0,0,0,5.779,5.778,5.785,5.785,0,0,0,5.779-5.778A5.785,5.785,0,0,0-1626.912,1550.815Z" transform="translate(1637.135 -1546.37)" fill="#ab0202"/>
      </g>
    </g>
    <g id="Group_105" data-name="Group 105" transform="translate(15.677 27.208)">
      <g id="Group_104" data-name="Group 104">
        <rect id="Rectangle_29" data-name="Rectangle 29" width="23.356" height="4.445" transform="translate(0 12.99) rotate(-33.792)" fill="#ab0202"/>
      </g>
    </g>
    <g id="Group_107" data-name="Group 107" transform="translate(49.601 24.861)">
      <g id="Group_106" data-name="Group 106">
        <rect id="Rectangle_30" data-name="Rectangle 30" width="4.445" height="16" transform="translate(0 4.297) rotate(-75.174)" fill="#ab0202"/>
      </g>
    </g>
    <g id="Group_109" data-name="Group 109" transform="translate(78.953 12.945)">
      <g id="Group_108" data-name="Group 108">
        <rect id="Rectangle_31" data-name="Rectangle 31" width="24.425" height="4.445" transform="matrix(0.822, -0.569, 0.569, 0.822, 0, 13.9)" fill="#ab0202"/>
      </g>
    </g>
  </g>
  <g id="Group_112" data-name="Group 112" transform="translate(8.001 80.219)">
    <g id="Group_111" data-name="Group 111" transform="translate(0 0)">
      <rect id="Rectangle_32" data-name="Rectangle 32" width="4.445" height="26.325" fill="#ab0202"/>
    </g>
  </g>
  <g id="Group_114" data-name="Group 114" transform="translate(24.111 69.142)">
    <g id="Group_113" data-name="Group 113">
      <rect id="Rectangle_33" data-name="Rectangle 33" width="4.445" height="37.402" fill="#ab0202"/>
    </g>
  </g>
  <g id="Group_116" data-name="Group 116" transform="translate(40.219 49.031)">
    <g id="Group_115" data-name="Group 115" transform="translate(0 0)">
      <rect id="Rectangle_34" data-name="Rectangle 34" width="4.445" height="57.513" fill="#ab0202"/>
    </g>
  </g>
  <g id="Group_118" data-name="Group 118" transform="translate(56.329 58.359)">
    <g id="Group_117" data-name="Group 117" transform="translate(0 0)">
      <rect id="Rectangle_35" data-name="Rectangle 35" width="4.445" height="48.184" fill="#ab0202"/>
    </g>
  </g>
  <g id="Group_120" data-name="Group 120" transform="translate(72.438 70.939)">
    <g id="Group_119" data-name="Group 119" transform="translate(0 0)">
      <rect id="Rectangle_36" data-name="Rectangle 36" width="4.445" height="35.605" fill="#ab0202"/>
    </g>
  </g>
  <g id="Group_122" data-name="Group 122" transform="translate(88.548 54.52)">
    <g id="Group_121" data-name="Group 121" transform="translate(0 0)">
      <rect id="Rectangle_37" data-name="Rectangle 37" width="4.445" height="52.023" fill="#ab0202"/>
    </g>
  </g>
  <g id="Group_124" data-name="Group 124" transform="translate(104.657 35.559)">
    <g id="Group_123" data-name="Group 123" transform="translate(0 0)">
      <rect id="Rectangle_38" data-name="Rectangle 38" width="4.445" height="70.984" fill="#ab0202"/>
    </g>
  </g>
</svg>
